<svg xmlns="http://www.w3.org/2000/svg" width="378" height="150" viewBox="0 0 378 150"><defs><style>.cls-1,.cls-3{fill:none;}.cls-2{fill:#424242;}.cls-3{stroke:#424242;}.cls-4{fill:#f9f9fa;}</style></defs><title>Artboard 1</title><g id="listCard"><g id="Group_3263" data-name="Group 3263"><g id="Group_3027" data-name="Group 3027"><rect id="Rectangle_1005" data-name="Rectangle 1005" class="cls-1" x="113.93" y="37.46" width="75.07" height="75.07"/><g id="Group_2493" data-name="Group 2493"><g id="Rectangle_1071" data-name="Rectangle 1071"><rect class="cls-2" x="132.69" y="61.09" width="4.69" height="4.69"/><rect class="cls-3" x="132.9" y="61.29" width="4.28" height="4.28"/></g><g id="Rectangle_1952" data-name="Rectangle 1952"><rect class="cls-2" x="132.69" y="72.69" width="4.69" height="4.69"/><rect class="cls-3" x="132.9" y="72.9" width="4.28" height="4.28"/></g><g id="Rectangle_1072" data-name="Rectangle 1072"><rect class="cls-2" x="132.69" y="84.29" width="4.69" height="4.69"/><rect class="cls-3" x="132.9" y="84.5" width="4.28" height="4.28"/></g></g><g id="Group_2494" data-name="Group 2494"><g id="Rectangle_1071-2" data-name="Rectangle 1071-2"><rect class="cls-2" x="142.08" y="61.09" width="28.15" height="4.69"/><rect class="cls-3" x="142.29" y="61.29" width="27.74" height="4.28"/></g><g id="Rectangle_1953" data-name="Rectangle 1953"><rect class="cls-2" x="142.08" y="72.69" width="28.15" height="4.69"/><rect class="cls-3" x="142.29" y="72.9" width="27.74" height="4.28"/></g><g id="Rectangle_1072-2" data-name="Rectangle 1072-2"><rect class="cls-2" x="142.08" y="84.29" width="28.15" height="4.69"/><rect class="cls-3" x="142.29" y="84.5" width="27.74" height="4.28"/></g></g></g><g id="Group_3165" data-name="Group 3165"><rect id="Rectangle_1005-2" data-name="Rectangle 1005-2" class="cls-2" x="189" y="37.46" width="75.07" height="75.07"/><rect id="Rectangle_1897" data-name="Rectangle 1897" class="cls-4" x="212.46" y="79.69" width="9.38" height="9.38"/><rect id="Rectangle_1898" data-name="Rectangle 1898" class="cls-4" x="212.46" y="60.92" width="9.38" height="9.38"/><rect id="Rectangle_1899" data-name="Rectangle 1899" class="cls-4" x="231.23" y="79.69" width="9.38" height="9.38"/><rect id="Rectangle_1900" data-name="Rectangle 1900" class="cls-4" x="231.23" y="60.92" width="9.38" height="9.38"/></g></g></g></svg>